<svg height="512" viewBox="0 0 300 300" width="512" xmlns="http://www.w3.org/2000/svg" xmlns:xlink="http://www.w3.org/1999/xlink"><clipPath id="clip-path"><circle id="Clipp" cx="150" cy="150" r="150"/></clipPath><g id="Layer_2" data-name="Layer 2"><g id="Icons"><g id="Facebook_Icon_01" data-name="Facebook Icon 01"><g clip-path="url(#clip-path)"><circle id="Background" cx="150" cy="150" fill="#3a559f" r="150"/><path id="F" d="m208.8 64.79-30.5-.05c-34.28 0-56.43 22.73-56.43 57.9v26.69h-30.67a4.79 4.79 0 0 0 -4.79 4.79v38.69a4.78 4.78 0 0 0 4.79 4.79h30.67v102.4h49.62v-102.4h35.86a4.79 4.79 0 0 0 4.8-4.79v-38.67a4.81 4.81 0 0 0 -4.81-4.81h-35.85v-22.63c0-10.87 2.59-16.4 16.75-16.4h20.56a4.8 4.8 0 0 0 4.79-4.79v-35.93a4.8 4.8 0 0 0 -4.79-4.79z" fill="#fff"/></g></g></g></g></svg>